<?xml version="1.0" encoding="UTF-8"?>
<svg version="1.1" xmlns="http://www.w3.org/2000/svg" width="240" height="240">
<path d="M0 0 C79.2 0 158.4 0 240 0 C240 79.2 240 158.4 240 240 C160.8 240 81.6 240 0 240 C0 160.8 0 81.6 0 0 Z " fill="#000000" transform="translate(0,0)"/>
<path d="M0 0 C13.2 0 26.4 0 40 0 C40 3.3 40 6.6 40 10 C46.6 10 53.2 10 60 10 C60 13.3 60 16.6 60 20 C66.6 20 73.2 20 80 20 C80 23.3 80 26.6 80 30 C83.3 30 86.6 30 90 30 C90 36.6 90 43.2 90 50 C93.3 50 96.6 50 100 50 C100 56.6 100 63.2 100 70 C103.3 70 106.6 70 110 70 C110 83.2 110 96.4 110 110 C106.7 110 103.4 110 100 110 C100 116.6 100 123.2 100 130 C96.7 130 93.4 130 90 130 C90 136.6 90 143.2 90 150 C86.7 150 83.4 150 80 150 C80 153.3 80 156.6 80 160 C73.4 160 66.8 160 60 160 C60 163.3 60 166.6 60 170 C53.4 170 46.8 170 40 170 C40 173.3 40 176.6 40 180 C26.8 180 13.6 180 0 180 C0 176.7 0 173.4 0 170 C-6.6 170 -13.2 170 -20 170 C-20 166.7 -20 163.4 -20 160 C-26.6 160 -33.2 160 -40 160 C-40 156.7 -40 153.4 -40 150 C-43.3 150 -46.6 150 -50 150 C-50 143.4 -50 136.8 -50 130 C-53.3 130 -56.6 130 -60 130 C-60 123.4 -60 116.8 -60 110 C-63.3 110 -66.6 110 -70 110 C-70 96.8 -70 83.6 -70 70 C-66.7 70 -63.4 70 -60 70 C-60 63.4 -60 56.8 -60 50 C-56.7 50 -53.4 50 -50 50 C-50 43.4 -50 36.8 -50 30 C-46.7 30 -43.4 30 -40 30 C-40 26.7 -40 23.4 -40 20 C-33.4 20 -26.8 20 -20 20 C-20 16.7 -20 13.4 -20 10 C-13.4 10 -6.8 10 0 10 C0 6.7 0 3.4 0 0 Z " fill="#D0F5E9" transform="translate(100,30)"/>
<path d="M0 0 C3.3 0 6.6 0 10 0 C10 6.6 10 13.2 10 20 C13.3 20 16.6 20 20 20 C20 23.3 20 26.6 20 30 C23.3 30 26.6 30 30 30 C30 36.6 30 43.2 30 50 C33.3 50 36.6 50 40 50 C40 53.3 40 56.6 40 60 C49.9 60 59.8 60 70 60 C70 63.3 70 66.6 70 70 C79.9 70 89.8 70 100 70 C100 73.3 100 76.6 100 80 C106.6 80 113.2 80 120 80 C120 83.3 120 86.6 120 90 C123.3 90 126.6 90 130 90 C130 93.3 130 96.6 130 100 C133.3 100 136.6 100 140 100 C140 103.3 140 106.6 140 110 C133.4 110 126.8 110 120 110 C120 113.3 120 116.6 120 120 C113.4 120 106.8 120 100 120 C100 123.3 100 126.6 100 130 C86.8 130 73.6 130 60 130 C60 126.7 60 123.4 60 120 C53.4 120 46.8 120 40 120 C40 116.7 40 113.4 40 110 C33.4 110 26.8 110 20 110 C20 106.7 20 103.4 20 100 C16.7 100 13.4 100 10 100 C10 93.4 10 86.8 10 80 C6.7 80 3.4 80 0 80 C0 73.4 0 66.8 0 60 C-3.3 60 -6.6 60 -10 60 C-10 46.8 -10 33.6 -10 20 C-6.7 20 -3.4 20 0 20 C0 13.4 0 6.8 0 0 Z " fill="#D0F5E9" transform="translate(40,80)"/>
<path d="M0 0 C6.6 0 13.2 0 20 0 C20 3.3 20 6.6 20 10 C29.9 10 39.8 10 50 10 C50 13.3 50 16.6 50 20 C53.3 20 56.6 20 60 20 C60 29.9 60 39.8 60 50 C63.3 50 66.6 50 70 50 C70 63.2 70 76.4 70 90 C66.7 90 63.4 90 60 90 C60 86.7 60 83.4 60 80 C56.7 80 53.4 80 50 80 C50 76.7 50 73.4 50 70 C43.4 70 36.8 70 30 70 C30 66.7 30 63.4 30 60 C20.1 60 10.2 60 0 60 C0 56.7 0 53.4 0 50 C-9.9 50 -19.8 50 -30 50 C-30 46.7 -30 43.4 -30 40 C-33.3 40 -36.6 40 -40 40 C-40 36.7 -40 33.4 -40 30 C-33.4 30 -26.8 30 -20 30 C-20 26.7 -20 23.4 -20 20 C-16.7 20 -13.4 20 -10 20 C-10 16.7 -10 13.4 -10 10 C-6.7 10 -3.4 10 0 10 C0 6.7 0 3.4 0 0 Z " fill="#FFBD40" transform="translate(110,90)"/>
<path d="M0 0 C3.3 0 6.6 0 10 0 C10 26.4 10 52.8 10 80 C-16.4 80 -42.8 80 -70 80 C-70 76.7 -70 73.4 -70 70 C-63.4 70 -56.8 70 -50 70 C-50 66.7 -50 63.4 -50 60 C-43.4 60 -36.8 60 -30 60 C-30 56.7 -30 53.4 -30 50 C-26.7 50 -23.4 50 -20 50 C-20 46.7 -20 43.4 -20 40 C-16.7 40 -13.4 40 -10 40 C-10 33.4 -10 26.8 -10 20 C-6.7 20 -3.4 20 0 20 C0 13.4 0 6.8 0 0 Z " fill="#DBDBDB" transform="translate(220,150)"/>
<path d="M0 0 C3.3 0 6.6 0 10 0 C10 6.6 10 13.2 10 20 C13.3 20 16.6 20 20 20 C20 26.6 20 33.2 20 40 C23.3 40 26.6 40 30 40 C30 43.3 30 46.6 30 50 C33.3 50 36.6 50 40 50 C40 53.3 40 56.6 40 60 C46.6 60 53.2 60 60 60 C60 63.3 60 66.6 60 70 C66.6 70 73.2 70 80 70 C80 73.3 80 76.6 80 80 C53.6 80 27.2 80 0 80 C0 53.6 0 27.2 0 0 Z " fill="#DBDBDB" transform="translate(10,150)"/>
<path d="M0 0 C9.9 0 19.8 0 30 0 C30 3.3 30 6.6 30 10 C39.9 10 49.8 10 60 10 C60 13.3 60 16.6 60 20 C66.6 20 73.2 20 80 20 C80 23.3 80 26.6 80 30 C76.7 30 73.4 30 70 30 C70 33.3 70 36.6 70 40 C66.7 40 63.4 40 60 40 C60 43.3 60 46.6 60 50 C46.8 50 33.6 50 20 50 C20 46.7 20 43.4 20 40 C16.7 40 13.4 40 10 40 C10 36.7 10 33.4 10 30 C6.7 30 3.4 30 0 30 C0 20.1 0 10.2 0 0 Z " fill="#91E3D3" transform="translate(80,140)"/>
<path d="M0 0 C13.2 0 26.4 0 40 0 C40 3.3 40 6.6 40 10 C43.3 10 46.6 10 50 10 C50 13.3 50 16.6 50 20 C53.3 20 56.6 20 60 20 C60 26.6 60 33.2 60 40 C56.7 40 53.4 40 50 40 C50 43.3 50 46.6 50 50 C46.7 50 43.4 50 40 50 C40 53.3 40 56.6 40 60 C33.4 60 26.8 60 20 60 C20 56.7 20 53.4 20 50 C16.7 50 13.4 50 10 50 C10 46.7 10 43.4 10 40 C6.7 40 3.4 40 0 40 C0 26.8 0 13.6 0 0 Z " fill="#FFFFFF" transform="translate(50,60)"/>
<path d="M0 0 C26.4 0 52.8 0 80 0 C80 26.4 80 52.8 80 80 C76.7 80 73.4 80 70 80 C70 73.4 70 66.8 70 60 C66.7 60 63.4 60 60 60 C60 53.4 60 46.8 60 40 C56.7 40 53.4 40 50 40 C50 36.7 50 33.4 50 30 C46.7 30 43.4 30 40 30 C40 26.7 40 23.4 40 20 C33.4 20 26.8 20 20 20 C20 16.7 20 13.4 20 10 C13.4 10 6.8 10 0 10 C0 6.7 0 3.4 0 0 Z " fill="#FFFFFF" transform="translate(150,10)"/>
<path d="M0 0 C26.4 0 52.8 0 80 0 C80 3.3 80 6.6 80 10 C73.4 10 66.8 10 60 10 C60 13.3 60 16.6 60 20 C53.4 20 46.8 20 40 20 C40 23.3 40 26.6 40 30 C36.7 30 33.4 30 30 30 C30 33.3 30 36.6 30 40 C26.7 40 23.4 40 20 40 C20 46.6 20 53.2 20 60 C16.7 60 13.4 60 10 60 C10 66.6 10 73.2 10 80 C6.7 80 3.4 80 0 80 C0 53.6 0 27.2 0 0 Z " fill="#DBDBDB" transform="translate(10,10)"/>
<path d="M0 0 C19.8 0 39.6 0 60 0 C60 3.3 60 6.6 60 10 C66.6 10 73.2 10 80 10 C80 13.3 80 16.6 80 20 C83.3 20 86.6 20 90 20 C90 23.3 90 26.6 90 30 C93.3 30 96.6 30 100 30 C100 33.3 100 36.6 100 40 C103.3 40 106.6 40 110 40 C110 46.6 110 53.2 110 60 C106.7 60 103.4 60 100 60 C100 56.7 100 53.4 100 50 C96.7 50 93.4 50 90 50 C90 46.7 90 43.4 90 40 C83.4 40 76.8 40 70 40 C70 36.7 70 33.4 70 30 C60.1 30 50.2 30 40 30 C40 26.7 40 23.4 40 20 C30.1 20 20.2 20 10 20 C10 16.7 10 13.4 10 10 C6.7 10 3.4 10 0 10 C0 6.7 0 3.4 0 0 Z " fill="#F76D46" transform="translate(70,120)"/>
<path d="M0 0 C3.3 0 6.6 0 10 0 C10 23.1 10 46.2 10 70 C6.7 70 3.4 70 0 70 C0 66.7 0 63.4 0 60 C-3.3 60 -6.6 60 -10 60 C-10 56.7 -10 53.4 -10 50 C-13.3 50 -16.6 50 -20 50 C-20 46.7 -20 43.4 -20 40 C-16.7 40 -13.4 40 -10 40 C-10 33.4 -10 26.8 -10 20 C-6.7 20 -3.4 20 0 20 C0 13.4 0 6.8 0 0 Z " fill="#FFFFFF" transform="translate(220,150)"/>
<path d="M0 0 C23.1 0 46.2 0 70 0 C70 3.3 70 6.6 70 10 C63.4 10 56.8 10 50 10 C50 13.3 50 16.6 50 20 C43.4 20 36.8 20 30 20 C30 23.3 30 26.6 30 30 C26.7 30 23.4 30 20 30 C20 26.7 20 23.4 20 20 C16.7 20 13.4 20 10 20 C10 16.7 10 13.4 10 10 C6.7 10 3.4 10 0 10 C0 6.7 0 3.4 0 0 Z " fill="#FFFFFF" transform="translate(20,10)"/>
<path d="M0 0 C13.2 0 26.4 0 40 0 C40 3.3 40 6.6 40 10 C26.8 10 13.6 10 0 10 C0 6.7 0 3.4 0 0 Z " fill="#1A695E" transform="translate(100,210)"/>
<path d="M0 0 C3.3 0 6.6 0 10 0 C10 13.2 10 26.4 10 40 C6.7 40 3.4 40 0 40 C0 26.8 0 13.6 0 0 Z " fill="#1A695E" transform="translate(210,100)"/>
<path d="M0 0 C3.3 0 6.6 0 10 0 C10 13.2 10 26.4 10 40 C6.7 40 3.4 40 0 40 C0 26.8 0 13.6 0 0 Z " fill="#1A695E" transform="translate(20,100)"/>
<path d="M0 0 C13.2 0 26.4 0 40 0 C40 3.3 40 6.6 40 10 C26.8 10 13.6 10 0 10 C0 6.7 0 3.4 0 0 Z " fill="#1A695E" transform="translate(100,20)"/>
<path d="M0 0 C6.6 0 13.2 0 20 0 C20 3.3 20 6.6 20 10 C13.4 10 6.8 10 0 10 C0 6.7 0 3.4 0 0 Z " fill="#1A695E" transform="translate(140,200)"/>
<path d="M0 0 C6.6 0 13.2 0 20 0 C20 3.3 20 6.6 20 10 C13.4 10 6.8 10 0 10 C0 6.7 0 3.4 0 0 Z " fill="#1A695E" transform="translate(80,200)"/>
<path d="M0 0 C6.6 0 13.2 0 20 0 C20 3.3 20 6.6 20 10 C13.4 10 6.8 10 0 10 C0 6.7 0 3.4 0 0 Z " fill="#1A695E" transform="translate(160,190)"/>
<path d="M0 0 C6.6 0 13.2 0 20 0 C20 3.3 20 6.6 20 10 C13.4 10 6.8 10 0 10 C0 6.7 0 3.4 0 0 Z " fill="#1A695E" transform="translate(60,190)"/>
<path d="M0 0 C3.3 0 6.6 0 10 0 C10 6.6 10 13.2 10 20 C6.7 20 3.4 20 0 20 C0 13.4 0 6.8 0 0 Z " fill="#1A695E" transform="translate(190,160)"/>
<path d="M0 0 C3.3 0 6.6 0 10 0 C10 6.6 10 13.2 10 20 C6.7 20 3.4 20 0 20 C0 13.4 0 6.8 0 0 Z " fill="#1A695E" transform="translate(40,160)"/>
<path d="M0 0 C3.3 0 6.6 0 10 0 C10 6.6 10 13.2 10 20 C6.7 20 3.4 20 0 20 C0 13.4 0 6.8 0 0 Z " fill="#1A695E" transform="translate(200,140)"/>
<path d="M0 0 C3.3 0 6.6 0 10 0 C10 6.6 10 13.2 10 20 C6.7 20 3.4 20 0 20 C0 13.4 0 6.8 0 0 Z " fill="#1A695E" transform="translate(30,140)"/>
<path d="M0 0 C6.6 0 13.2 0 20 0 C20 3.3 20 6.6 20 10 C13.4 10 6.8 10 0 10 C0 6.7 0 3.4 0 0 Z " fill="#FFF3DE" transform="translate(70,110)"/>
<path d="M0 0 C3.3 0 6.6 0 10 0 C10 6.6 10 13.2 10 20 C6.7 20 3.4 20 0 20 C0 13.4 0 6.8 0 0 Z " fill="#1A695E" transform="translate(200,80)"/>
<path d="M0 0 C3.3 0 6.6 0 10 0 C10 6.6 10 13.2 10 20 C6.7 20 3.4 20 0 20 C0 13.4 0 6.8 0 0 Z " fill="#F2FFFD" transform="translate(50,80)"/>
<path d="M0 0 C3.3 0 6.6 0 10 0 C10 6.6 10 13.2 10 20 C6.7 20 3.4 20 0 20 C0 13.4 0 6.8 0 0 Z " fill="#1A695E" transform="translate(30,80)"/>
<path d="M0 0 C3.3 0 6.6 0 10 0 C10 6.6 10 13.2 10 20 C6.7 20 3.4 20 0 20 C0 13.4 0 6.8 0 0 Z " fill="#D0F5E9" transform="translate(50,60)"/>
<path d="M0 0 C3.3 0 6.6 0 10 0 C10 6.6 10 13.2 10 20 C6.7 20 3.4 20 0 20 C0 13.4 0 6.8 0 0 Z " fill="#1A695E" transform="translate(190,60)"/>
<path d="M0 0 C3.3 0 6.6 0 10 0 C10 6.6 10 13.2 10 20 C6.7 20 3.4 20 0 20 C0 13.4 0 6.8 0 0 Z " fill="#1A695E" transform="translate(40,60)"/>
<path d="M0 0 C6.6 0 13.2 0 20 0 C20 3.3 20 6.6 20 10 C13.4 10 6.8 10 0 10 C0 6.7 0 3.4 0 0 Z " fill="#1A695E" transform="translate(160,40)"/>
<path d="M0 0 C6.6 0 13.2 0 20 0 C20 3.3 20 6.6 20 10 C13.4 10 6.8 10 0 10 C0 6.7 0 3.4 0 0 Z " fill="#1A695E" transform="translate(60,40)"/>
<path d="M0 0 C6.6 0 13.2 0 20 0 C20 3.3 20 6.6 20 10 C13.4 10 6.8 10 0 10 C0 6.7 0 3.4 0 0 Z " fill="#1A695E" transform="translate(140,30)"/>
<path d="M0 0 C6.6 0 13.2 0 20 0 C20 3.3 20 6.6 20 10 C13.4 10 6.8 10 0 10 C0 6.7 0 3.4 0 0 Z " fill="#1A695E" transform="translate(80,30)"/>
<path d="M0 0 C3.3 0 6.6 0 10 0 C10 3.3 10 6.6 10 10 C6.7 10 3.4 10 0 10 C0 6.7 0 3.4 0 0 Z " fill="#91E3D3" transform="translate(150,190)"/>
<path d="M0 0 C3.3 0 6.6 0 10 0 C10 3.3 10 6.6 10 10 C6.7 10 3.4 10 0 10 C0 6.7 0 3.4 0 0 Z " fill="#91E3D3" transform="translate(80,190)"/>
<path d="M0 0 C3.3 0 6.6 0 10 0 C10 3.3 10 6.6 10 10 C6.7 10 3.4 10 0 10 C0 6.7 0 3.4 0 0 Z " fill="#1A695E" transform="translate(180,180)"/>
<path d="M0 0 C3.3 0 6.6 0 10 0 C10 3.3 10 6.6 10 10 C6.7 10 3.4 10 0 10 C0 6.7 0 3.4 0 0 Z " fill="#91E3D3" transform="translate(60,180)"/>
<path d="M0 0 C3.3 0 6.6 0 10 0 C10 3.3 10 6.6 10 10 C6.7 10 3.4 10 0 10 C0 6.7 0 3.4 0 0 Z " fill="#1A695E" transform="translate(50,180)"/>
<path d="M0 0 C3.3 0 6.6 0 10 0 C10 3.3 10 6.6 10 10 C6.7 10 3.4 10 0 10 C0 6.7 0 3.4 0 0 Z " fill="#91E3D3" transform="translate(190,150)"/>
<path d="M0 0 C3.3 0 6.6 0 10 0 C10 3.3 10 6.6 10 10 C6.7 10 3.4 10 0 10 C0 6.7 0 3.4 0 0 Z " fill="#91E3D3" transform="translate(40,150)"/>
<path d="M0 0 C3.3 0 6.6 0 10 0 C10 3.3 10 6.6 10 10 C6.7 10 3.4 10 0 10 C0 6.7 0 3.4 0 0 Z " fill="#91E3D3" transform="translate(200,130)"/>
<path d="M0 0 C3.3 0 6.6 0 10 0 C10 3.3 10 6.6 10 10 C6.7 10 3.4 10 0 10 C0 6.7 0 3.4 0 0 Z " fill="#91E3D3" transform="translate(30,130)"/>
<path d="M0 0 C3.3 0 6.6 0 10 0 C10 3.3 10 6.6 10 10 C6.7 10 3.4 10 0 10 C0 6.7 0 3.4 0 0 Z " fill="#91E3D3" transform="translate(200,100)"/>
<path d="M0 0 C3.3 0 6.6 0 10 0 C10 3.3 10 6.6 10 10 C6.7 10 3.4 10 0 10 C0 6.7 0 3.4 0 0 Z " fill="#FFF3DE" transform="translate(90,100)"/>
<path d="M0 0 C3.3 0 6.6 0 10 0 C10 3.3 10 6.6 10 10 C6.7 10 3.4 10 0 10 C0 6.7 0 3.4 0 0 Z " fill="#F2FFFD" transform="translate(60,100)"/>
<path d="M0 0 C3.3 0 6.6 0 10 0 C10 3.3 10 6.6 10 10 C6.7 10 3.4 10 0 10 C0 6.7 0 3.4 0 0 Z " fill="#91E3D3" transform="translate(30,100)"/>
<path d="M0 0 C3.3 0 6.6 0 10 0 C10 3.3 10 6.6 10 10 C6.7 10 3.4 10 0 10 C0 6.7 0 3.4 0 0 Z " fill="#FFF3DE" transform="translate(100,90)"/>
<path d="M0 0 C3.3 0 6.6 0 10 0 C10 3.3 10 6.6 10 10 C6.7 10 3.4 10 0 10 C0 6.7 0 3.4 0 0 Z " fill="#91E3D3" transform="translate(190,80)"/>
<path d="M0 0 C3.3 0 6.6 0 10 0 C10 3.3 10 6.6 10 10 C6.7 10 3.4 10 0 10 C0 6.7 0 3.4 0 0 Z " fill="#F2FFFD" transform="translate(100,80)"/>
<path d="M0 0 C3.3 0 6.6 0 10 0 C10 3.3 10 6.6 10 10 C6.7 10 3.4 10 0 10 C0 6.7 0 3.4 0 0 Z " fill="#91E3D3" transform="translate(40,80)"/>
<path d="M0 0 C3.3 0 6.6 0 10 0 C10 3.3 10 6.6 10 10 C6.7 10 3.4 10 0 10 C0 6.7 0 3.4 0 0 Z " fill="#F2FFFD" transform="translate(90,70)"/>
<path d="M0 0 C3.3 0 6.6 0 10 0 C10 3.3 10 6.6 10 10 C6.7 10 3.4 10 0 10 C0 6.7 0 3.4 0 0 Z " fill="#91E3D3" transform="translate(180,60)"/>
<path d="M0 0 C3.3 0 6.6 0 10 0 C10 3.3 10 6.6 10 10 C6.7 10 3.4 10 0 10 C0 6.7 0 3.4 0 0 Z " fill="#F2FFFD" transform="translate(80,60)"/>
<path d="M0 0 C3.3 0 6.6 0 10 0 C10 3.3 10 6.6 10 10 C6.7 10 3.4 10 0 10 C0 6.7 0 3.4 0 0 Z " fill="#FFBD40" transform="translate(60,60)"/>
<path d="M0 0 C3.3 0 6.6 0 10 0 C10 3.3 10 6.6 10 10 C6.7 10 3.4 10 0 10 C0 6.7 0 3.4 0 0 Z " fill="#91E3D3" transform="translate(50,60)"/>
<path d="M0 0 C3.3 0 6.6 0 10 0 C10 3.3 10 6.6 10 10 C6.7 10 3.4 10 0 10 C0 6.7 0 3.4 0 0 Z " fill="#1A695E" transform="translate(180,50)"/>
<path d="M0 0 C3.3 0 6.6 0 10 0 C10 3.3 10 6.6 10 10 C6.7 10 3.4 10 0 10 C0 6.7 0 3.4 0 0 Z " fill="#1A695E" transform="translate(50,50)"/>
<path d="M0 0 C3.3 0 6.6 0 10 0 C10 3.3 10 6.6 10 10 C6.7 10 3.4 10 0 10 C0 6.7 0 3.4 0 0 Z " fill="#91E3D3" transform="translate(150,40)"/>
<path d="M0 0 C3.3 0 6.6 0 10 0 C10 3.3 10 6.6 10 10 C6.7 10 3.4 10 0 10 C0 6.7 0 3.4 0 0 Z " fill="#91E3D3" transform="translate(80,40)"/>
<path d="M0 0 C3.3 0 6.6 0 10 0 C10 3.3 10 6.6 10 10 C6.7 10 3.4 10 0 10 C0 6.7 0 3.4 0 0 Z " fill="#91E3D3" transform="translate(130,30)"/>
<path d="M0 0 C3.3 0 6.6 0 10 0 C10 3.3 10 6.6 10 10 C6.7 10 3.4 10 0 10 C0 6.7 0 3.4 0 0 Z " fill="#91E3D3" transform="translate(100,30)"/>
</svg>
